<svg width="39" height="38" viewBox="0 0 39 38" fill="none" xmlns="http://www.w3.org/2000/svg">
<path d="M32.5625 10.6875H6.4375C5.78166 10.6875 5.25 11.2192 5.25 11.875V30.875C5.25 31.5308 5.78166 32.0625 6.4375 32.0625H32.5625C33.2183 32.0625 33.75 31.5308 33.75 30.875V11.875C33.75 11.2192 33.2183 10.6875 32.5625 10.6875Z" stroke="#6D737A" stroke-width="1.5" stroke-linecap="round" stroke-linejoin="round"/>
<path d="M25.4375 10.6875V8.3125C25.4375 7.68261 25.1873 7.07852 24.7419 6.63312C24.2965 6.18772 23.6924 5.9375 23.0625 5.9375H15.9375C15.3076 5.9375 14.7035 6.18772 14.2581 6.63312C13.8127 7.07852 13.5625 7.68261 13.5625 8.3125V10.6875" stroke="#6D737A" stroke-width="1.5" stroke-linecap="round" stroke-linejoin="round"/>
<path d="M33.75 18.7477C29.419 21.2524 24.5031 22.5684 19.5 22.5625C14.4959 22.5755 9.57825 21.259 5.25 18.7477" stroke="#6D737A" stroke-width="1.5" stroke-linecap="round" stroke-linejoin="round"/>
<path d="M17.7188 17.8125H21.2812" stroke="#6D737A" stroke-width="1.5" stroke-linecap="round" stroke-linejoin="round"/>
</svg>
