<svg xmlns="http://www.w3.org/2000/svg" viewBox="0 0 512 512">
  <path d="M487.4 315.7l-28.2-16.3 3.4-33.2c1-10.1-3.9-20.2-12.9-26.2L398.5 211l8.7-32.8c3-11.3.2-23.4-7.4-32.4l-33.6-40.3c-8.5-10.2-21.3-16-34.8-15.6l-33.5 1c-6-11.3-13.6-22.3-22.5-31.6L286 37.5c-13.5-13.9-35.2-15.5-50.5-3.8L188.7 65.1c-12.6 9.9-27.3 18-43.1 24L118 54.8c-15-7.7-34.3-4.8-47 7.2L49.6 89.5c-12.7 12.1-18.1 30.2-13.8 47.3L48 170.3c-14.5 7-28.4 15.3-41.5 24.8L2 222.4c-15.3 10.8-22.7 29.7-18.6 48.1l5.2 23.3c3.8 17.1 15.8 31.3 31.7 38.3l23.6 10.6-3.4 33.2c-1 10.1 3.9 20.2 12.9 26.2l32.8 18.6c-3 11.3-.2 23.4 7.4 32.4l40.3 33.6c8.5 10.2 21.3 16 34.8 15.6l33.5-1c6 11.3 13.6 22.3 22.5 31.6l22.5 22.4c13.5 13.9 35.2 15.5 50.5 3.8l48.1-32.3c12.6-9.9 27.3-18 43.1-24l27.7 13.3c15 7.7 34.3 4.8 47-7.2l21.6-21.3c12.7-12.1 18.1-30.2 13.8-47.3l-4.3-21c14.5-7 28.4-15.3 41.5-24.8l21.4-16.6c15.3-10.8 22.7-29.7 18.6-48.1l-5.2-23.3c-3.8-17.1-15.8-31.3-31.7-38.3zM288 328c0 13.2-10.8 24-24 24s-24-10.8-24-24V184c0-13.2 10.8-24 24-24s24 10.8 24 24v144zm0 80c0 13.2-10.8 24-24 24s-24-10.8-24-24 10.8-24 24-24 24 10.8 24 24z"/>
</svg>
