<svg width="22" height="13" viewBox="0 0 22 13" fill="none" xmlns="http://www.w3.org/2000/svg">
<path d="M2.41348 0.238699C2.88133 0.620731 3.29742 1.07393 3.72342 1.50086C3.80254 1.57999 3.88167 1.65911 3.96081 1.73822C4.13022 1.90762 4.29956 2.07709 4.46884 2.24661C4.71358 2.4917 4.95845 2.73668 5.20334 2.98162C5.60079 3.37917 5.99815 3.77681 6.39545 4.17452C6.78106 4.56052 7.16672 4.94649 7.55244 5.33239C7.57627 5.35623 7.6001 5.38007 7.62466 5.40464C7.74423 5.52427 7.86381 5.6439 7.98339 5.76354C8.97319 6.75378 9.96283 7.74417 10.9524 8.73467C11.0828 8.67631 11.1727 8.61079 11.2733 8.50968C11.3022 8.48082 11.3311 8.45196 11.3609 8.42222C11.3923 8.39043 11.4238 8.35863 11.4561 8.32587C11.5066 8.27531 11.5066 8.27531 11.5582 8.22372C11.6713 8.11034 11.7841 7.99666 11.8969 7.88299C11.9778 7.80178 12.0587 7.7206 12.1396 7.63943C12.3141 7.4644 12.4885 7.28923 12.6627 7.11396C12.915 6.86019 13.1677 6.60673 13.4204 6.35337C13.8309 5.94182 14.2413 5.53014 14.6516 5.11831C14.6761 5.09366 14.7007 5.06901 14.726 5.04362C15.0741 4.69414 15.4221 4.34454 15.7701 3.99488C15.7946 3.97028 15.8191 3.94569 15.8443 3.92034C15.8687 3.89577 15.8932 3.8712 15.9184 3.84589C16.3266 3.43566 16.7352 3.02576 17.1441 2.61614C17.3961 2.36363 17.6478 2.11086 17.8991 1.85771C18.0716 1.68407 18.2444 1.51074 18.4174 1.33765C18.5171 1.2379 18.6166 1.13796 18.7158 1.03774C18.8237 0.928825 18.9321 0.820457 19.0406 0.712204C19.0714 0.680789 19.1023 0.649375 19.1341 0.617009C19.4697 0.284693 19.8556 0.0169398 20.3413 0.0100226C20.3705 0.0102612 20.3998 0.0104997 20.4299 0.0107455C20.4603 0.0109564 20.4908 0.0111672 20.5222 0.0113845C20.756 0.0166274 20.9152 0.0459119 21.1218 0.152881C21.1502 0.167484 21.1785 0.182086 21.2078 0.197131C21.5756 0.403753 21.8288 0.73063 21.9622 1.12906C22.06 1.66035 21.9697 2.09475 21.6724 2.53579C21.5325 2.72419 21.3673 2.88608 21.2011 3.0512C21.162 3.0906 21.1228 3.13 21.0825 3.17059C20.9747 3.2791 20.8665 3.3872 20.7582 3.49524C20.6412 3.61216 20.5245 3.72944 20.4078 3.84667C20.1795 4.07595 19.9507 4.30488 19.7219 4.53367C19.5358 4.71971 19.3498 4.90586 19.1639 5.09209C19.1102 5.14583 19.0566 5.19956 19.0029 5.2533C18.9762 5.28005 18.9495 5.3068 18.922 5.33437C18.4175 5.83969 17.9125 6.34458 17.4075 6.84935C16.9459 7.31068 16.4849 7.77257 16.0242 8.23473C15.5505 8.70984 15.0764 9.18456 14.602 9.65885C14.3358 9.9249 14.0698 10.1911 13.8042 10.4578C13.5782 10.6847 13.3517 10.9113 13.1248 11.1374C13.0092 11.2527 12.8937 11.3681 12.7787 11.484C12.6537 11.6099 12.528 11.735 12.4021 11.8599C12.3663 11.8963 12.3304 11.9327 12.2935 11.9702C11.8808 12.3767 11.4934 12.566 10.9186 12.5672C10.293 12.5557 9.89684 12.1546 9.47683 11.7334C9.41805 11.675 9.41805 11.675 9.35808 11.6154C9.25007 11.508 9.14231 11.4003 9.03461 11.2925C8.91811 11.1761 8.80137 11.0599 8.68467 10.9437C8.42992 10.69 8.17549 10.4359 7.92112 10.1817C7.76214 10.0229 7.6031 9.86412 7.44405 9.70538C7.00321 9.26539 6.56245 8.82533 6.12198 8.38498C6.09383 8.35684 6.06568 8.3287 6.03668 8.29971C5.97963 8.24267 5.92257 8.18563 5.86552 8.12859C5.8372 8.10028 5.80888 8.07197 5.7797 8.0428C5.75135 8.01445 5.72299 7.9861 5.69378 7.9569C5.23419 7.49747 4.77411 7.03854 4.3138 6.57984C3.84063 6.1083 3.36786 5.63636 2.8955 5.16402C2.63051 4.89905 2.36536 4.63426 2.09976 4.3699C1.87366 4.14485 1.64793 3.91944 1.42268 3.69354C1.30785 3.57841 1.19286 3.46345 1.0774 3.34896C0.951963 3.22458 0.827382 3.09937 0.702861 2.97407C0.64849 2.92055 0.64849 2.92055 0.593021 2.86595C0.184288 2.45138 -0.000905272 2.06601 3.32647e-06 1.48918C0.00743691 1.0399 0.15546 0.741422 0.468168 0.423576C1.0065 -0.0668216 1.79039 -0.135384 2.41348 0.238699Z" fill="#6D737A"/>
</svg>
