<svg width="26" height="26" viewBox="0 0 26 26" fill="none" xmlns="http://www.w3.org/2000/svg">
<path d="M24.3762 13.2528C24.3762 12.3175 24.2988 11.635 24.1312 10.9272H13.2334V15.1486H19.6302C19.5012 16.1976 18.8048 17.7775 17.2572 18.8391L17.2355 18.9804L20.6812 21.5964L20.9199 21.6197C23.1123 19.6354 24.3762 16.7158 24.3762 13.2528Z" fill="#4285F4"/>
<path d="M13.2326 24.3749C16.3664 24.3749 18.9973 23.3637 20.919 21.6196L17.2563 18.8389C16.2762 19.5088 14.9607 19.9764 13.2326 19.9764C10.1631 19.9764 7.55802 17.9922 6.62936 15.2495L6.49324 15.2608L2.91038 17.9782L2.86353 18.1059C4.77223 21.8217 8.69286 24.3749 13.2326 24.3749Z" fill="#34A853"/>
<path d="M6.63013 15.2496C6.3851 14.5418 6.24329 13.7834 6.24329 12.9999C6.24329 12.2162 6.3851 11.4579 6.61724 10.7501L6.61075 10.5994L2.98298 7.83838L2.86428 7.89371C2.07761 9.43567 1.62622 11.1672 1.62622 12.9999C1.62622 14.8325 2.07761 16.564 2.86428 18.1059L6.63013 15.2496Z" fill="#FBBC05"/>
<path d="M13.2326 6.0233C15.4122 6.0233 16.8824 6.94594 17.7207 7.71696L20.9965 4.5825C18.9846 2.74987 16.3665 1.625 13.2326 1.625C8.69289 1.625 4.77224 4.17804 2.86353 7.89384L6.61649 10.7503C7.55805 8.00763 10.1632 6.0233 13.2326 6.0233Z" fill="#EB4335"/>
</svg>
