<svg width="20" height="18" viewBox="0 0 20 18" fill="none" xmlns="http://www.w3.org/2000/svg">
<path d="M9.42859 0.275873C9.75227 0.541301 9.93196 0.842092 10.0016 1.25848C10.0449 1.69965 9.89808 2.07078 9.65047 2.42883C9.52266 2.57796 9.38459 2.71613 9.24518 2.85431C9.20443 2.89527 9.16371 2.93627 9.12302 2.9773C9.01326 3.08777 8.90302 3.19774 8.79266 3.3076C8.67656 3.42331 8.56084 3.5394 8.44505 3.65542C8.25051 3.85025 8.05564 4.04475 7.86057 4.23907C7.63611 4.46269 7.41222 4.68685 7.18861 4.91132C6.99567 5.10498 6.80242 5.29832 6.60892 5.49141C6.49377 5.60632 6.37872 5.72132 6.26396 5.83661C6.15586 5.94517 6.04737 6.05333 5.93859 6.16122C5.8991 6.2005 5.85974 6.23992 5.82052 6.27948C5.48235 6.62038 5.12813 6.89768 4.69599 7.11023C4.72564 7.11027 4.75529 7.11031 4.78584 7.11034C6.54337 7.11262 8.3009 7.1155 10.0584 7.11916C10.2695 7.1196 10.4805 7.12004 10.6916 7.12047C10.7336 7.12055 10.7756 7.12064 10.8189 7.12073C11.4991 7.12211 12.1793 7.12308 12.8596 7.1239C13.5576 7.12475 14.2556 7.12604 14.9536 7.12773C15.3843 7.12877 15.815 7.12946 16.2457 7.12971C16.5411 7.12991 16.8365 7.13055 17.1318 7.13152C17.3022 7.13206 17.4726 7.13242 17.643 7.13227C17.7991 7.13214 17.9553 7.13254 18.1114 7.13337C18.1678 7.13358 18.2241 7.13359 18.2805 7.13338C18.7992 7.13165 19.2131 7.20695 19.5975 7.57395C19.9271 7.93083 20.0081 8.27151 19.9994 8.74658C19.9808 9.14565 19.7554 9.4688 19.4692 9.73376C19.2075 9.94723 18.9106 10.0407 18.5772 10.0415C18.5275 10.0417 18.4777 10.0419 18.4264 10.0422C18.3711 10.0422 18.3157 10.0422 18.2604 10.0423C18.2016 10.0425 18.1429 10.0426 18.0842 10.0429C17.9227 10.0434 17.7611 10.0437 17.5996 10.0439C17.4254 10.0442 17.2513 10.0448 17.0772 10.0453C16.7754 10.0461 16.4737 10.0468 16.1719 10.0475C15.7356 10.0483 15.2993 10.0494 14.863 10.0506C14.1551 10.0524 13.4473 10.0541 12.7394 10.0557C12.0518 10.0572 11.3641 10.0589 10.6764 10.0606C10.634 10.0607 10.5916 10.0608 10.548 10.0609C10.3354 10.0614 10.1228 10.062 9.91025 10.0625C8.14616 10.067 6.38206 10.0711 4.61797 10.0751C4.64972 10.0906 4.68148 10.106 4.7142 10.1219C4.75607 10.1425 4.79793 10.1632 4.84107 10.1844C4.88248 10.2047 4.92389 10.2249 4.96656 10.2458C5.58308 10.5725 6.08885 11.1886 6.5757 11.6767C6.6786 11.7798 6.78171 11.8827 6.88483 11.9855C6.95116 12.0519 7.01748 12.1183 7.08378 12.1846C7.12938 12.2301 7.12938 12.2301 7.17591 12.2765C7.30706 12.4082 7.43514 12.5405 7.55581 12.6819C7.72589 12.8791 7.91264 13.0595 8.09849 13.2417C8.18789 13.3294 8.27691 13.4176 8.36596 13.5057C8.53101 13.6689 8.69622 13.8321 8.86207 13.9945C8.97816 14.1083 9.09375 14.2225 9.20904 14.3371C9.25269 14.3803 9.29652 14.4233 9.34053 14.4662C9.71458 14.8304 9.99044 15.2002 10.0138 15.7416C10.0028 16.1164 9.89998 16.4622 9.65047 16.7461C9.3199 17.0579 8.93343 17.1889 8.48637 17.1835C7.98799 17.1502 7.64208 16.8623 7.30278 16.5204C7.2727 16.4906 7.24262 16.4607 7.21162 16.43C7.11162 16.3306 7.01205 16.2309 6.91247 16.1311C6.84056 16.0595 6.76863 15.9879 6.69668 15.9163C6.52202 15.7425 6.34768 15.5683 6.17346 15.394C6.03177 15.2523 5.88998 15.1107 5.74812 14.9691C5.70715 14.9282 5.66618 14.8873 5.62521 14.8464C5.60482 14.8261 5.58442 14.8057 5.56341 14.7847C5.17833 14.4004 4.79363 14.0157 4.40905 13.6308C4.05774 13.2793 3.70591 12.9283 3.35385 12.5775C2.99171 12.2167 2.62994 11.8555 2.26856 11.4939C2.06591 11.2912 1.86313 11.0886 1.65995 10.8864C1.46888 10.6963 1.27832 10.5056 1.08809 10.3146C1.01834 10.2447 0.948431 10.175 0.878337 10.1054C0.782395 10.0102 0.687081 9.91439 0.591893 9.8184C0.564277 9.79128 0.536662 9.76415 0.508209 9.7362C0.149977 9.37157 -0.000213965 9.00738 2.28757e-07 8.50295C0.0091813 8.10817 0.137416 7.83524 0.409054 7.54881C0.429339 7.52715 0.449624 7.50549 0.470524 7.48317C0.760566 7.17562 1.06043 6.87754 1.35923 6.57855C1.42676 6.51084 1.49429 6.44311 1.56181 6.37538C1.74379 6.1929 1.92589 6.01054 2.10803 5.82823C2.22199 5.71415 2.33593 5.60005 2.44987 5.48594C2.76617 5.16917 3.0825 4.85243 3.39897 4.53582C3.4292 4.50558 3.4292 4.50558 3.46004 4.47473C3.49034 4.44442 3.49034 4.44442 3.52124 4.4135C3.56216 4.37257 3.60307 4.33164 3.64398 4.29071C3.66427 4.27041 3.68457 4.25011 3.70548 4.22919C4.03501 3.8995 4.36429 3.56954 4.69345 3.23948C5.03247 2.89953 5.37171 2.5598 5.71117 2.2203C5.90134 2.03009 6.09142 1.83979 6.28125 1.64925C6.45957 1.47027 6.63818 1.29159 6.817 1.11312C6.88244 1.0477 6.94778 0.982191 7.01302 0.91657C7.10229 0.826802 7.19192 0.737405 7.28164 0.648089C7.30716 0.622249 7.33269 0.59641 7.35899 0.569787C7.93284 0.0019635 8.7244 -0.222543 9.42859 0.275873Z" fill="white"/>
</svg>
