<svg width="24" height="23" viewBox="0 0 24 23" fill="none" xmlns="http://www.w3.org/2000/svg">
<path d="M16.8296 0.453383L6.29465 3.95338C-0.787018 6.32172 -0.787018 10.1834 6.29465 12.54L9.42132 13.5784L10.4596 16.705C12.8163 23.7867 16.6896 23.7867 19.0463 16.705L22.558 6.18172C24.1213 1.45672 21.5546 -1.12162 16.8296 0.453383ZM17.203 6.73005L12.7696 11.1867C12.5946 11.3617 12.373 11.4434 12.1513 11.4434C11.9296 11.4434 11.708 11.3617 11.533 11.1867C11.3703 11.0221 11.279 10.7999 11.279 10.5684C11.279 10.3369 11.3703 10.1147 11.533 9.95005L15.9663 5.49338C16.3046 5.15505 16.8646 5.15505 17.203 5.49338C17.5413 5.83172 17.5413 6.39172 17.203 6.73005Z" fill="#008FCC"/>
</svg>
