<svg width="26" height="26" viewBox="0 0 26 26" fill="none" xmlns="http://www.w3.org/2000/svg">
<g clip-path="url(#clip0_25_485)">
<path d="M13.0002 26.0002C20.1799 26.0002 26.0002 20.1799 26.0002 13.0002C26.0002 5.82054 20.1799 0.000244141 13.0002 0.000244141C5.82054 0.000244141 0.000244141 5.82054 0.000244141 13.0002C0.000244141 20.1799 5.82054 26.0002 13.0002 26.0002Z" fill="#F0F0F0"/>
<path d="M7.3479 17.5217L8.47834 25.1915C9.88661 25.7141 11.4099 26 13.0001 26C18.5895 26 23.3547 22.4721 25.1914 17.5217H7.3479Z" fill="black"/>
<path d="M7.3479 8.47828L8.47834 0.808488C9.88661 0.285898 11.4099 0 13.0001 0C18.5895 0 23.3547 3.52787 25.1914 8.47828H7.3479Z" fill="#6DA544"/>
<path d="M0 13C0 18.5896 3.52793 23.3546 8.47829 25.1914V0.808594C3.52793 2.6454 0 7.41046 0 13Z" fill="#A2001D"/>
</g>
<defs>
<clipPath id="clip0_25_485">
<rect width="26" height="26" fill="white"/>
</clipPath>
</defs>
</svg>
