<svg width="26" height="26" viewBox="0 0 26 26" fill="none" xmlns="http://www.w3.org/2000/svg">
<g clip-path="url(#clip0_25_486)">
<path d="M13.0002 26C20.1799 26 26.0002 20.1797 26.0002 13C26.0002 5.8203 20.1799 0 13.0002 0C5.82054 0 0.000244141 5.8203 0.000244141 13C0.000244141 20.1797 5.82054 26 13.0002 26Z" fill="#F0F0F0"/>
<path d="M2.68726 5.08545C1.6661 6.41404 0.896101 7.94535 0.447754 9.60889H7.2107L2.68726 5.08545Z" fill="#0052B4"/>
<path d="M25.5522 9.60908C25.1038 7.94559 24.3338 6.41428 23.3126 5.08569L18.7893 9.60908H25.5522Z" fill="#0052B4"/>
<path d="M0.447754 16.3916C0.896152 18.0551 1.66615 19.5864 2.68726 20.9149L7.21055 16.3916H0.447754Z" fill="#0052B4"/>
<path d="M20.9145 2.68755C19.5859 1.66639 18.0547 0.896396 16.3911 0.447998V7.21089L20.9145 2.68755Z" fill="#0052B4"/>
<path d="M5.08521 23.3128C6.41379 24.334 7.9451 25.104 9.60859 25.5524V18.7896L5.08521 23.3128Z" fill="#0052B4"/>
<path d="M9.60855 0.447998C7.94505 0.896396 6.41374 1.66639 5.08521 2.6875L9.60855 7.21084V0.447998Z" fill="#0052B4"/>
<path d="M16.3911 25.5524C18.0546 25.104 19.5859 24.334 20.9145 23.3129L16.3911 18.7896V25.5524Z" fill="#0052B4"/>
<path d="M18.7893 16.3916L23.3126 20.915C24.3338 19.5865 25.1038 18.0551 25.5522 16.3916H18.7893Z" fill="#0052B4"/>
<path d="M25.8902 11.3044H14.696H14.6959V0.110043C14.1408 0.0377813 13.5749 0 13.0002 0C12.4255 0 11.8596 0.0377813 11.3046 0.110043V11.3043V11.3043H0.110287C0.0380254 11.8594 0.000244141 12.4253 0.000244141 13C0.000244141 13.5748 0.0380254 14.1406 0.110287 14.6956H11.3045H11.3046V25.89C11.8596 25.9622 12.4255 26 13.0002 26C13.5749 26 14.1408 25.9623 14.6959 25.89V14.6957V14.6957H25.8902C25.9625 14.1406 26.0002 13.5748 26.0002 13C26.0002 12.4253 25.9625 11.8594 25.8902 11.3044Z" fill="#D80027"/>
<path d="M16.3914 16.3914L22.1924 22.1925C22.4592 21.9258 22.7137 21.6469 22.9566 21.3579L17.9901 16.3914H16.3914V16.3914Z" fill="#D80027"/>
<path d="M9.60871 16.3914H9.60861L3.80762 22.1924C4.07432 22.4592 4.35316 22.7137 4.64221 22.9565L9.60871 17.9899V16.3914Z" fill="#D80027"/>
<path d="M9.60866 9.60882V9.60871L3.80761 3.80762C3.54081 4.07432 3.28629 4.35316 3.04346 4.64221L8.01001 9.60877H9.60866V9.60882Z" fill="#D80027"/>
<path d="M16.3914 9.60871L22.1925 3.80756C21.9258 3.54076 21.6469 3.28624 21.3579 3.04346L16.3914 8.01002V9.60871Z" fill="#D80027"/>
</g>
<defs>
<clipPath id="clip0_25_486">
<rect width="26" height="26" fill="white"/>
</clipPath>
</defs>
</svg>
