<svg width="98" height="86" viewBox="0 0 98 86" fill="none" xmlns="http://www.w3.org/2000/svg">
<path d="M50.1428 19.9934C49.9558 20.6203 50.3129 21.2792 50.9396 21.4661L51.032 21.4937L51.035 21.4903C51.6342 21.6168 52.2364 21.2627 52.4124 20.6684C54.0762 15.078 59.3174 11.1729 65.1572 11.1729C65.8111 11.1729 66.3415 10.6426 66.3415 9.9887C66.3415 9.3348 65.8111 8.80447 65.1572 8.80447C58.0421 8.80447 52.0627 13.5418 50.1428 19.9934ZM50.1428 19.9934L50.2866 20.0362M50.1428 19.9934C50.1428 19.9934 50.1428 19.9934 50.1428 19.9935L50.2866 20.0362M50.2866 20.0362C50.1233 20.5836 50.435 21.1591 50.9824 21.3224L50.2866 20.0362Z" fill="#082758" stroke="#F4F4F4" stroke-width="0.3"/>
<path d="M79.6357 60.6658H73.4305C72.8594 60.6658 72.3962 60.2026 72.3962 59.6315C72.3962 59.0605 72.8594 58.5973 73.4305 58.5973H79.6357C88.1894 58.5973 95.149 51.6377 95.149 43.084C95.149 34.5303 88.1894 27.5707 79.6357 27.5707H79.4865C79.1866 27.5707 78.9014 27.4407 78.7049 27.2139C78.5084 26.9871 78.4198 26.6864 78.4626 26.3895C78.555 25.7453 78.6015 25.0982 78.6015 24.4681C78.6015 17.0549 72.5697 11.0231 65.1566 11.0231C62.2725 11.0231 59.5222 11.9244 57.2026 13.6301C56.6928 14.0046 55.9689 13.8384 55.6741 13.2777C49.1047 0.768094 31.9459 -0.911816 23.0499 9.97044C19.3024 14.555 17.8299 20.5187 19.0098 26.3312C19.1398 26.9731 18.6486 27.5715 17.9963 27.5715H17.5818C9.02817 27.5715 2.06854 34.5311 2.06854 43.0848C2.06854 51.6385 9.02817 58.5981 17.5818 58.5981H23.7871C24.3581 58.5981 24.8213 59.0613 24.8213 59.6323C24.8213 60.2034 24.3581 60.6666 23.7871 60.6666H17.5818C7.88743 60.6666 0 52.7791 0 43.0847C0 33.6623 7.45076 25.9469 16.77 25.5214C15.8946 19.4911 17.5685 13.4084 21.4483 8.66142C30.9727 -2.99053 49.2255 -1.6845 56.9414 11.3083C59.403 9.76506 62.2196 8.95549 65.1562 8.95549C74.1377 8.95549 81.2546 16.5999 80.6319 25.5311C89.8652 26.0489 97.2171 33.7235 97.2171 43.084C97.2171 52.7791 89.3297 60.6658 79.6352 60.6658L79.6357 60.6658Z" fill="#082758"/>
<path d="M22.4643 59.0475C22.4643 73.3873 34.1304 85.0533 48.4701 85.0533C62.8099 85.0533 74.4759 73.3871 74.4759 59.0475C74.4759 44.7076 62.8099 33.0417 48.4701 33.0417C34.1302 33.0417 22.4643 44.7078 22.4643 59.0475ZM24.8332 59.0475C24.8332 46.0144 35.4368 35.4106 48.4701 35.4106C61.5031 35.4106 72.107 46.0142 72.107 59.0475C72.107 72.0805 61.5031 82.6844 48.4701 82.6844C35.437 82.6844 24.8332 72.0807 24.8332 59.0475Z" fill="#082758" stroke="#F4F4F4" stroke-width="0.3"/>
<path d="M48.0375 69.4561C48.0375 69.9571 48.4438 70.3633 48.9447 70.3633C49.4455 70.3633 49.8518 69.9576 49.8518 69.4561V49.7696C49.8518 49.2687 49.4456 48.8625 48.9447 48.8625C48.4438 48.8625 48.0375 49.2687 48.0375 49.7696V69.4561Z" fill="#082758" stroke="#082758" stroke-width="0.3"/>
<path d="M48.9435 51.0543L43.5278 56.47L48.9435 51.0543ZM48.9435 51.0543L54.3593 56.4701C54.5362 56.647 54.769 56.7358 55.0008 56.7358L48.9435 51.0543ZM42.2447 56.4701C42.599 56.8244 43.1737 56.8246 43.5277 56.4701L55.0008 56.7358C55.2323 56.7358 55.4652 56.6477 55.6423 56.47C55.9967 56.1156 55.9967 55.5415 55.6423 55.1871L49.585 49.1298C49.2307 48.7755 48.656 48.7753 48.302 49.1298C48.302 49.1299 48.3019 49.1299 48.3019 49.1299L42.2447 55.1871C41.8903 55.5415 41.8903 56.1157 42.2447 56.4701Z" fill="#082758" stroke="#082758" stroke-width="0.3"/>
</svg>
