<svg width="98" height="98" viewBox="0 0 98 98" fill="none" xmlns="http://www.w3.org/2000/svg">
<path d="M48.9403 0.000777043C49.1252 0.00112551 49.3101 0.00147398 49.5007 0.001833C52.2407 0.0105175 54.9067 0.107801 57.6026 0.634027C57.8599 0.680186 57.8599 0.680186 58.1223 0.727278C69.5562 2.79623 80.5511 9.30705 87.6163 18.604C87.696 18.7073 87.7756 18.8106 87.8577 18.917C89.3265 20.8277 90.6155 22.8273 91.822 24.9126C91.8974 25.0421 91.9728 25.1715 92.0504 25.3049C94.5705 29.6863 96.2156 34.5754 97.2345 39.5132C97.2627 39.649 97.2909 39.7849 97.3199 39.9249C97.8906 42.9153 98.0111 45.9043 97.9992 48.9403C97.9987 49.2177 97.9987 49.2177 97.9982 49.5007C97.9895 52.2407 97.8922 54.9067 97.366 57.6026C97.3352 57.7741 97.3044 57.9456 97.2727 58.1223C95.2038 69.5562 88.6929 80.5511 79.396 87.6163C79.2927 87.696 79.1894 87.7756 79.083 87.8577C77.1723 89.3265 75.1727 90.6155 73.0874 91.822C72.9579 91.8974 72.8285 91.9728 72.6951 92.0504C68.3137 94.5705 63.4246 96.2156 58.4868 97.2345C58.3509 97.2627 58.2151 97.2909 58.0751 97.3199C55.0847 97.8906 52.0957 98.0111 49.0597 97.9992C48.8748 97.9989 48.6899 97.9985 48.4993 97.9982C45.7593 97.9895 43.0933 97.8922 40.3974 97.366C40.2259 97.3352 40.0544 97.3044 39.8777 97.2727C28.4438 95.2038 17.4489 88.6929 10.3837 79.396C10.304 79.2927 10.2244 79.1894 10.1423 79.083C8.67349 77.1723 7.38453 75.1727 6.17795 73.0874C6.10258 72.9579 6.0272 72.8285 5.94954 72.6951C3.42948 68.3137 1.78437 63.4246 0.765456 58.4868C0.737271 58.3509 0.709086 58.2151 0.680046 58.0751C0.109335 55.0847 -0.0111347 52.0957 0.000777043 49.0597C0.00112551 48.8748 0.00147398 48.6899 0.001833 48.4993C0.0105175 45.7593 0.107801 43.0933 0.634027 40.3974C0.680186 40.1401 0.680186 40.1401 0.727278 39.8777C2.79623 28.4438 9.30705 17.4489 18.604 10.3837C18.7073 10.304 18.8106 10.2244 18.917 10.1423C20.8277 8.67349 22.8273 7.38453 24.9126 6.17795C25.0421 6.10258 25.1715 6.0272 25.3049 5.94954C29.6863 3.42948 34.5754 1.78437 39.5132 0.765456C39.649 0.737271 39.7849 0.709086 39.9249 0.680046C42.9153 0.109335 45.9043 -0.0111347 48.9403 0.000777043Z" fill="#862234"/>
<path d="M38.1033 24.9126C38.8992 25.2502 39.6119 25.6954 40.3373 26.1604C40.8482 26.4856 41.3643 26.8015 41.8812 27.117C42.7304 27.6359 43.5783 28.157 44.4246 28.6807C45.7058 29.4735 46.9882 30.2642 48.2712 31.0539C48.4768 31.1805 48.6824 31.3072 48.8943 31.4376C50.2532 32.2738 51.6151 33.105 52.9787 33.9334C54.517 34.868 56.0502 35.8103 57.5798 36.759C60.4992 38.5695 63.4248 40.3699 66.3606 42.1537C67.0737 42.5875 67.7866 43.0216 68.4993 43.4561C68.7744 43.6237 68.7744 43.6237 69.0551 43.7948C69.5992 44.1271 70.1426 44.4605 70.6858 44.7943C70.8476 44.8929 71.0093 44.9915 71.1759 45.0931C74.2277 46.9741 74.2277 46.9741 74.6168 48.0441C74.7509 49.1848 74.7178 50.136 74.0432 51.1029C72.9811 52.0991 71.7273 52.7967 70.4827 53.5403C70.2446 53.6835 70.0066 53.8268 69.7687 53.9703C69.2742 54.2682 68.7795 54.5657 68.2845 54.8629C67.235 55.4935 66.1888 56.1296 65.1425 56.7657C64.8064 56.97 64.4702 57.1741 64.1339 57.3783C62.3742 58.4466 60.6154 59.5166 58.8572 60.5874C58.1445 61.0214 57.4316 61.455 56.7185 61.8883C54.7992 63.0546 52.8833 64.2262 50.9714 65.4048C49.0081 66.6146 47.0426 67.8209 45.0675 69.0115C44.845 69.1456 44.6225 69.2799 44.4 69.4141C44.2903 69.4802 44.1807 69.5464 44.0677 69.6145C43.3994 70.019 42.736 70.4304 42.0759 70.8481C41.7519 71.0527 41.4268 71.2553 41.1016 71.4579C40.7012 71.7075 40.3026 71.9601 39.9063 72.2163C38.7004 72.9615 37.6314 73.386 36.1916 73.2786C35.5345 72.956 35.5345 72.956 35.0446 72.5139C34.9027 72.3917 34.7607 72.2694 34.6145 72.1435C33.8089 71.1941 33.8419 70.2193 33.8452 69.034C33.8442 68.8563 33.8432 68.6785 33.8421 68.4954C33.8393 67.8996 33.8391 67.3038 33.839 66.708C33.8375 66.2809 33.8359 65.8538 33.8342 65.4268C33.83 64.2663 33.8283 63.1058 33.8273 61.9454C33.8266 61.2204 33.8254 60.4954 33.8241 59.7704C33.8204 57.762 33.8172 55.7535 33.8167 53.7451C33.8166 53.6166 33.8166 53.4882 33.8165 53.3558C33.8165 53.0954 33.8164 52.8351 33.8163 52.5747C33.8163 52.4454 33.8163 52.3162 33.8162 52.183C33.8162 52.0536 33.8162 51.9242 33.8161 51.7909C33.8154 49.6941 33.8103 47.5974 33.8031 45.5006C33.7958 43.3464 33.7922 41.1922 33.7921 39.0379C33.7919 37.829 33.7903 36.6201 33.7848 35.4112C33.7798 34.274 33.7794 33.137 33.7825 31.9998C33.7828 31.5827 33.7815 31.1657 33.7785 30.7486C33.7746 30.1786 33.7766 29.6089 33.7801 29.0388C33.7775 28.8743 33.775 28.7099 33.7724 28.5404C33.7887 27.3644 34.1181 26.5945 34.8534 25.6773C35.8196 24.7571 36.8336 24.6603 38.1033 24.9126Z" fill="white"/>
</svg>
